<svg width="25" height="25" viewBox="0 0 25 25" fill="none" xmlns="http://www.w3.org/2000/svg">
<rect x="0.325" y="0.325" width="24.35" height="24.35" rx="1.2375" stroke="#545454" stroke-opacity="0.8" stroke-width="0.65"/>
<path d="M8.97172 18.2324V12.5992L5.71875 10.1V17.0423C5.71875 17.8357 6.11545 18.2324 6.90886 18.2324" fill="#4285F4"/>
<path d="M8.81293 12.5595L12.8593 15.6141L16.9057 12.5595V8.67184L12.8593 11.7265L8.81293 8.67184" fill="#EA4335"/>
<path d="M16.747 18.2324V12.5992L20 10.1V17.0423C20 17.8357 19.6033 18.2324 18.8099 18.2324" fill="#34A853"/>
<path d="M5.71875 10.1793L8.97172 12.6786V8.79089L7.78161 7.87847C6.71051 7.04539 5.71875 7.87847 5.71875 8.9099" fill="#C5221F"/>
<path d="M20 10.1793L16.747 12.6786V8.79089L17.9371 7.87847C19.0082 7.04539 20 7.87847 20 8.9099" fill="#FBBC04"/>
</svg>
