<svg width="25" height="25" viewBox="0 0 25 25" fill="none" xmlns="http://www.w3.org/2000/svg">
<rect x="0.325" y="0.325" width="24.35" height="24.35" rx="1.2375" stroke="#545454" stroke-opacity="0.8" stroke-width="0.65"/>
<path d="M15.6696 10.3222V7.37007C15.6696 7.1657 15.5041 7 15.2999 7H14.7085C14.5043 7 14.3386 7.1657 14.3386 7.37007V10.3222H11.6618V7.37007C11.6619 7.1657 11.4964 7 11.292 7H10.7008C10.4964 7 10.3309 7.1657 10.3309 7.37007V10.3222H8.78845V11.5789H17.2121V10.3222H15.6696Z" fill="#767472"/>
<path d="M8.78821 13.7076C8.78821 15.2206 9.68908 16.5225 10.9831 17.1088V17.9209C10.9831 18.3108 11.2994 18.6271 11.6894 18.6271H14.3106C14.7008 18.6271 15.0169 18.3108 15.0169 17.9209V17.1088C16.3111 16.5225 17.2118 15.2206 17.2118 13.7076V12.1499H8.78821V13.7076Z" fill="#767472"/>
</svg>
