<svg width="25" height="25" viewBox="0 0 25 25" fill="none" xmlns="http://www.w3.org/2000/svg">
<rect x="0.325" y="0.325" width="24.35" height="24.35" rx="1.2375" stroke="#545454" stroke-opacity="0.8" stroke-width="0.65"/>
<path fill-rule="evenodd" clip-rule="evenodd" d="M12.7614 6.40002C13.3282 6.40002 13.8151 6.79028 13.9218 7.33001L13.9692 7.57001C14.1556 8.51335 15.162 9.0767 16.0978 8.76152L16.336 8.6813C16.8714 8.50099 17.4635 8.71471 17.7469 9.1906L18.1749 9.90941C18.4584 10.3853 18.3532 10.9893 17.9244 11.3487L17.7337 11.5085C16.9842 12.1367 16.9842 13.2634 17.7337 13.8915L17.9244 14.0513C18.3532 14.4107 18.4584 15.0147 18.1749 15.4906L17.7469 16.2094C17.4635 16.6853 16.8714 16.899 16.336 16.7187L16.0979 16.6385C15.162 16.3233 14.1556 16.8866 13.9692 17.83L13.9218 18.07C13.8151 18.6097 13.3282 19 12.7614 19H11.9052C11.3385 19 10.8515 18.6097 10.7448 18.0701L10.6974 17.8299C10.511 16.8866 9.50455 16.3233 8.5687 16.6385L8.33065 16.7187C7.79522 16.899 7.20312 16.6853 6.9197 16.2094L6.49166 15.4906C6.20825 15.0147 6.31337 14.4107 6.74216 14.0513L6.93289 13.8915C7.68235 13.2633 7.68235 12.1367 6.93289 11.5085L6.74216 11.3487C6.31337 10.9893 6.20825 10.3853 6.49166 9.90943L6.91972 9.19062C7.20313 8.71472 7.7952 8.50099 8.33063 8.68132L8.56875 8.76152C9.50459 9.0767 10.511 8.51339 10.6974 7.57007L10.7448 7.32996C10.8515 6.79026 11.3384 6.40002 11.9052 6.40002H12.7614ZM12.3333 14.5C13.3274 14.5 14.1333 13.6941 14.1333 12.7C14.1333 11.7059 13.3274 10.9 12.3333 10.9C11.3392 10.9 10.5333 11.7059 10.5333 12.7C10.5333 13.6941 11.3392 14.5 12.3333 14.5Z" fill="#767472"/>
</svg>
