<svg width="24" height="24" viewBox="0 0 24 24" fill="none" xmlns="http://www.w3.org/2000/svg">
<g clip-path="url(#clip0_152_25)">
<circle cx="12.473" cy="11.5341" r="6.73922" fill="#25D366"/>
<path d="M5.73383 18.2733L6.63239 13.7805L10.2266 16.9254L5.73383 18.2733Z" fill="#25D366"/>
<path fill-rule="evenodd" clip-rule="evenodd" d="M17.7371 6.30256C16.2771 4.84129 14.3356 4.0362 12.2668 4.03534C8.00431 4.03534 4.53528 7.50307 4.53356 11.7656C4.53188 13.1222 4.88791 14.4551 5.56577 15.6302L4.46869 19.6362L8.56821 18.5612C9.70212 19.1785 10.9726 19.502 12.2637 19.5021H12.2669C16.5288 19.5021 19.9983 16.034 20 11.7715C20.0008 9.70586 19.1972 7.7635 17.7371 6.30248V6.30256ZM12.2669 18.1968H12.2642C11.1131 18.197 9.98322 17.8876 8.99279 17.3011L8.75807 17.1619L6.32548 17.8003L6.97477 15.4292L6.82218 15.1857C6.17815 14.1615 5.83721 12.9759 5.83879 11.7661C5.84051 8.22336 8.72391 5.34117 12.2694 5.34117C13.986 5.34186 15.5999 6.01109 16.8135 7.22565C18.027 8.44022 18.6949 10.0545 18.694 11.7717C18.6926 15.3147 15.8093 18.1972 12.2666 18.1972L12.2669 18.1968Z" fill="white"/>
<path fill-rule="evenodd" clip-rule="evenodd" d="M9.99997 15.0743C10.0479 15.1032 10.1465 15.1032 10.3725 15.103C11.3316 15.1021 12.16 15.0992 12.7493 15.0992C15.4992 15.0992 15.4269 12.2042 14.1412 11.843C14.3295 11.5094 15.1875 10.8826 14.6568 9.58713C14.1323 8.30615 11.8754 8.59688 10.332 8.59764C9.76086 8.59764 9.84632 9.01966 9.84921 9.67577C9.85392 10.715 9.85004 13.5278 9.84921 14.7438C9.84921 14.9903 9.92364 15.0281 9.99997 15.0743ZM11.1899 14.0133C11.4495 14.0133 12.062 14.0133 12.587 14.0125C13.1815 14.0116 13.7109 13.7335 13.6977 13.1416C13.688 12.5841 13.3171 12.4011 12.8022 12.35C12.3119 12.3547 11.751 12.3547 11.1899 12.3547V14.0133ZM11.1899 11.235C12.2242 11.2208 12.6233 11.2767 13.188 11.1353C13.5757 10.9148 13.7456 10.0981 13.1902 9.82061C12.8044 9.62788 11.6643 9.69379 11.1899 9.71356V11.235Z" fill="white"/>
</g>
<rect x="0.325" y="0.325" width="23.35" height="23.35" rx="0.675" stroke="#545454" stroke-width="0.65"/>
<defs>
<clipPath id="clip0_152_25">
<rect width="24" height="24" rx="1" fill="white"/>
</clipPath>
</defs>
</svg>
