<svg width="24" height="24" viewBox="0 0 24 24" fill="none" xmlns="http://www.w3.org/2000/svg">
<g clip-path="url(#clip0_152_16)">
<path d="M5.76564 18.4219L6.42189 15.375C5.57841 14.0446 5.24937 12.4522 5.4965 10.8964C5.74362 9.3407 6.54993 7.9286 7.76414 6.92507C8.97835 5.92155 10.517 5.39556 12.0915 5.4458C13.6659 5.49604 15.1679 6.11905 16.3157 7.19795C17.4634 8.27684 18.1781 9.73748 18.3255 11.3058C18.4729 12.8741 18.043 14.4424 17.1165 15.7163C16.1899 16.9902 14.8303 17.8822 13.2928 18.225C11.7553 18.5678 10.1456 18.3378 8.76564 17.5781L5.76564 18.4219Z" fill="#25D366" stroke="white" stroke-width="1.21875"/>
<path d="M14.4375 12.7969C14.2968 12.7031 14.1562 12.6562 14.0156 12.8437L13.4531 13.5937C13.3125 13.6875 13.2187 13.7344 13.0312 13.6406C12.3281 13.2656 11.3437 12.8437 10.5 11.4375C10.4531 11.25 10.5468 11.1562 10.6406 11.0625L11.0625 10.4062C11.1562 10.3125 11.1093 10.2187 11.0625 10.125L10.5 8.76561C10.3593 8.39061 10.2187 8.43748 10.0781 8.43748H9.70309C9.60934 8.43748 9.42184 8.48436 9.23434 8.67186C8.20309 9.70311 8.62496 11.1562 9.37496 12.0937C9.51559 12.2812 10.4531 13.9687 12.4687 14.8594C13.9687 15.5156 14.2968 15.4219 14.7187 15.3281C15.2343 15.2812 15.75 14.8594 15.9843 14.4375C16.0312 14.2969 16.2656 13.6875 16.0781 13.5937" fill="white"/>
</g>
<rect x="0.325" y="0.325" width="23.35" height="23.35" rx="0.675" stroke="#545454" stroke-width="0.65"/>
<defs>
<clipPath id="clip0_152_16">
<rect width="24" height="24" rx="1" fill="white"/>
</clipPath>
</defs>
</svg>
